<svg xmlns="http://www.w3.org/2000/svg" width="720" height="460" viewBox="0 0 720 460" font-family="DejaVu Sans,Arial,sans-serif">
<rect width="100%" height="100%" fill="white"/>
<text x="78" y="24" font-size="15" font-weight="bold">True vs estimated ink height (SAFE conditions)</text>
<line x1="78.0" y1="400.0" x2="694.0" y2="400.0" stroke="#eee"/>
<text x="70.0" y="404.0" font-size="11" text-anchor="end" fill="#444">1.21</text>
<line x1="78.0" y1="328.8" x2="694.0" y2="328.8" stroke="#eee"/>
<text x="70.0" y="332.8" font-size="11" text-anchor="end" fill="#444">2.25</text>
<line x1="78.0" y1="257.6" x2="694.0" y2="257.6" stroke="#eee"/>
<text x="70.0" y="261.6" font-size="11" text-anchor="end" fill="#444">3.29</text>
<line x1="78.0" y1="186.4" x2="694.0" y2="186.4" stroke="#eee"/>
<text x="70.0" y="190.4" font-size="11" text-anchor="end" fill="#444">4.33</text>
<line x1="78.0" y1="115.2" x2="694.0" y2="115.2" stroke="#eee"/>
<text x="70.0" y="119.2" font-size="11" text-anchor="end" fill="#444">5.37</text>
<line x1="78.0" y1="44.0" x2="694.0" y2="44.0" stroke="#eee"/>
<text x="70.0" y="48.0" font-size="11" text-anchor="end" fill="#444">6.40</text>
<line x1="78.0" y1="44.0" x2="78.0" y2="400.0" stroke="#f4f4f4"/>
<text x="78.0" y="418.0" font-size="11" text-anchor="middle" fill="#444">1.25</text>
<line x1="201.2" y1="44.0" x2="201.2" y2="400.0" stroke="#f4f4f4"/>
<text x="201.2" y="418.0" font-size="11" text-anchor="middle" fill="#444">2.27</text>
<line x1="324.4" y1="44.0" x2="324.4" y2="400.0" stroke="#f4f4f4"/>
<text x="324.4" y="418.0" font-size="11" text-anchor="middle" fill="#444">3.30</text>
<line x1="447.6" y1="44.0" x2="447.6" y2="400.0" stroke="#f4f4f4"/>
<text x="447.6" y="418.0" font-size="11" text-anchor="middle" fill="#444">4.32</text>
<line x1="570.8" y1="44.0" x2="570.8" y2="400.0" stroke="#f4f4f4"/>
<text x="570.8" y="418.0" font-size="11" text-anchor="middle" fill="#444">5.35</text>
<line x1="694.0" y1="44.0" x2="694.0" y2="400.0" stroke="#f4f4f4"/>
<text x="694.0" y="418.0" font-size="11" text-anchor="middle" fill="#444">6.38</text>
<rect x="78.0" y="44.0" width="616.0" height="356.0" fill="none" stroke="#999"/>
<polyline points="115.82,376.29 656.18,67.63" fill="none" stroke="#888" stroke-width="2.0"/>
<circle cx="295.94" cy="273.22" r="3.0" fill="#c0392b" fill-opacity="0.75"/>
<circle cx="295.94" cy="273.38" r="3.0" fill="#c0392b" fill-opacity="0.75"/>
<circle cx="288.74" cy="277.34" r="3.0" fill="#c0392b" fill-opacity="0.75"/>
<circle cx="295.94" cy="273.48" r="3.0" fill="#c0392b" fill-opacity="0.75"/>
<circle cx="303.15" cy="269.30" r="3.0" fill="#c0392b" fill-opacity="0.75"/>
<circle cx="317.56" cy="261.19" r="3.0" fill="#c0392b" fill-opacity="0.75"/>
<circle cx="115.82" cy="376.29" r="3.0" fill="#c0392b" fill-opacity="0.75"/>
<circle cx="175.86" cy="342.00" r="3.0" fill="#c0392b" fill-opacity="0.75"/>
<circle cx="295.94" cy="273.48" r="3.0" fill="#c0392b" fill-opacity="0.75"/>
<circle cx="416.02" cy="204.89" r="3.0" fill="#c0392b" fill-opacity="0.75"/>
<circle cx="656.18" cy="67.75" r="3.0" fill="#c0392b" fill-opacity="0.75"/>
<circle cx="115.82" cy="375.74" r="3.0" fill="#c0392b" fill-opacity="0.75"/>
<circle cx="175.86" cy="341.67" r="3.0" fill="#c0392b" fill-opacity="0.75"/>
<circle cx="295.94" cy="273.44" r="3.0" fill="#c0392b" fill-opacity="0.75"/>
<circle cx="416.02" cy="204.94" r="3.0" fill="#c0392b" fill-opacity="0.75"/>
<circle cx="656.18" cy="67.70" r="3.0" fill="#c0392b" fill-opacity="0.75"/>
<circle cx="295.94" cy="273.36" r="3.0" fill="#c0392b" fill-opacity="0.75"/>
<line x1="295.94" y1="274.96" x2="295.94" y2="271.47" stroke="#c0392b" stroke-width="1.2"/>
<line x1="295.94" y1="275.23" x2="295.94" y2="271.52" stroke="#c0392b" stroke-width="1.2"/>
<line x1="288.74" y1="279.14" x2="288.74" y2="275.55" stroke="#c0392b" stroke-width="1.2"/>
<line x1="295.94" y1="275.40" x2="295.94" y2="271.56" stroke="#c0392b" stroke-width="1.2"/>
<line x1="303.15" y1="271.08" x2="303.15" y2="267.51" stroke="#c0392b" stroke-width="1.2"/>
<line x1="317.56" y1="262.95" x2="317.56" y2="259.42" stroke="#c0392b" stroke-width="1.2"/>
<line x1="115.82" y1="378.14" x2="115.82" y2="374.44" stroke="#c0392b" stroke-width="1.2"/>
<line x1="175.86" y1="343.86" x2="175.86" y2="340.13" stroke="#c0392b" stroke-width="1.2"/>
<line x1="295.94" y1="275.29" x2="295.94" y2="271.66" stroke="#c0392b" stroke-width="1.2"/>
<line x1="416.02" y1="206.69" x2="416.02" y2="203.08" stroke="#c0392b" stroke-width="1.2"/>
<line x1="656.18" y1="69.61" x2="656.18" y2="65.90" stroke="#c0392b" stroke-width="1.2"/>
<line x1="115.82" y1="377.43" x2="115.82" y2="374.06" stroke="#c0392b" stroke-width="1.2"/>
<line x1="175.86" y1="343.29" x2="175.86" y2="340.05" stroke="#c0392b" stroke-width="1.2"/>
<line x1="295.94" y1="275.19" x2="295.94" y2="271.70" stroke="#c0392b" stroke-width="1.2"/>
<line x1="416.02" y1="206.72" x2="416.02" y2="203.16" stroke="#c0392b" stroke-width="1.2"/>
<line x1="656.18" y1="69.54" x2="656.18" y2="65.86" stroke="#c0392b" stroke-width="1.2"/>
<line x1="295.94" y1="275.13" x2="295.94" y2="271.59" stroke="#c0392b" stroke-width="1.2"/>
<rect x="86.0" y="50.0" width="9" height="9" fill="#888"/>
<text x="99.0" y="58.0" font-size="11" fill="#222">identity</text>
<rect x="86.0" y="65.0" width="9" height="9" fill="#c0392b"/>
<text x="99.0" y="73.0" font-size="11" fill="#222">estimate</text>
<rect x="86.0" y="80.0" width="9" height="9" fill="#c0392b"/>
<text x="99.0" y="88.0" font-size="11" fill="#222">interval</text>
<text x="386.0" y="440" font-size="12" text-anchor="middle">true ink height (mm)</text>
<text x="16" y="222.0" font-size="12" text-anchor="middle" transform="rotate(-90 16 222.0)">estimated height (mm)</text>
<text x="78" y="456" font-size="10" fill="#555">n=17 runs; intervals use a NOMINAL coverage factor k=1.645</text>
</svg>