<svg xmlns="http://www.w3.org/2000/svg" width="720" height="460" viewBox="0 0 720 460" font-family="DejaVu Sans,Arial,sans-serif">
<rect width="100%" height="100%" fill="white"/>
<text x="78" y="24" font-size="15" font-weight="bold">Guard-band decisions around a fixed threshold</text>
<line x1="78.0" y1="400.0" x2="694.0" y2="400.0" stroke="#eee"/>
<text x="70.0" y="404.0" font-size="11" text-anchor="end" fill="#444">2.29</text>
<line x1="78.0" y1="328.8" x2="694.0" y2="328.8" stroke="#eee"/>
<text x="70.0" y="332.8" font-size="11" text-anchor="end" fill="#444">2.57</text>
<line x1="78.0" y1="257.6" x2="694.0" y2="257.6" stroke="#eee"/>
<text x="70.0" y="261.6" font-size="11" text-anchor="end" fill="#444">2.86</text>
<line x1="78.0" y1="186.4" x2="694.0" y2="186.4" stroke="#eee"/>
<text x="70.0" y="190.4" font-size="11" text-anchor="end" fill="#444">3.14</text>
<line x1="78.0" y1="115.2" x2="694.0" y2="115.2" stroke="#eee"/>
<text x="70.0" y="119.2" font-size="11" text-anchor="end" fill="#444">3.43</text>
<line x1="78.0" y1="44.0" x2="694.0" y2="44.0" stroke="#eee"/>
<text x="70.0" y="48.0" font-size="11" text-anchor="end" fill="#444">3.71</text>
<line x1="78.0" y1="44.0" x2="78.0" y2="400.0" stroke="#f4f4f4"/>
<text x="78.0" y="418.0" font-size="11" text-anchor="middle" fill="#444">2.32</text>
<line x1="201.2" y1="44.0" x2="201.2" y2="400.0" stroke="#f4f4f4"/>
<text x="201.2" y="418.0" font-size="11" text-anchor="middle" fill="#444">2.59</text>
<line x1="324.4" y1="44.0" x2="324.4" y2="400.0" stroke="#f4f4f4"/>
<text x="324.4" y="418.0" font-size="11" text-anchor="middle" fill="#444">2.86</text>
<line x1="447.6" y1="44.0" x2="447.6" y2="400.0" stroke="#f4f4f4"/>
<text x="447.6" y="418.0" font-size="11" text-anchor="middle" fill="#444">3.14</text>
<line x1="570.8" y1="44.0" x2="570.8" y2="400.0" stroke="#f4f4f4"/>
<text x="570.8" y="418.0" font-size="11" text-anchor="middle" fill="#444">3.41</text>
<line x1="694.0" y1="44.0" x2="694.0" y2="400.0" stroke="#f4f4f4"/>
<text x="694.0" y="418.0" font-size="11" text-anchor="middle" fill="#444">3.68</text>
<rect x="78.0" y="44.0" width="616.0" height="356.0" fill="none" stroke="#999"/>
<line x1="78.0" y1="222.0" x2="694.0" y2="222.0" stroke="#c0392b" stroke-dasharray="4,3"/>
<text x="690.0" y="218.0" font-size="10" fill="#c0392b" text-anchor="end">threshold</text>
<circle cx="115.82" cy="371.49" r="3.0" fill="#1f5fa8" fill-opacity="0.75"/>
<circle cx="250.91" cy="296.33" r="3.0" fill="#1f5fa8" fill-opacity="0.75"/>
<circle cx="318.46" cy="259.05" r="3.0" fill="#1f5fa8" fill-opacity="0.75"/>
<circle cx="363.49" cy="234.38" r="3.0" fill="#1f5fa8" fill-opacity="0.75"/>
<circle cx="408.51" cy="210.17" r="3.0" fill="#1f5fa8" fill-opacity="0.75"/>
<circle cx="453.54" cy="183.95" r="3.0" fill="#1f5fa8" fill-opacity="0.75"/>
<circle cx="521.09" cy="147.14" r="3.0" fill="#1f5fa8" fill-opacity="0.75"/>
<circle cx="656.18" cy="72.42" r="3.0" fill="#1f5fa8" fill-opacity="0.75"/>
<line x1="115.82" y1="378.14" x2="115.82" y2="364.84" stroke="#c0392b" stroke-width="1.2"/>
<line x1="250.91" y1="302.77" x2="250.91" y2="289.89" stroke="#c0392b" stroke-width="1.2"/>
<line x1="318.46" y1="265.47" x2="318.46" y2="252.63" stroke="#c0392b" stroke-width="1.2"/>
<line x1="363.49" y1="240.70" x2="363.49" y2="228.06" stroke="#c0392b" stroke-width="1.2"/>
<line x1="408.51" y1="216.28" x2="408.51" y2="204.06" stroke="#c0392b" stroke-width="1.2"/>
<line x1="453.54" y1="190.54" x2="453.54" y2="177.36" stroke="#c0392b" stroke-width="1.2"/>
<line x1="521.09" y1="153.61" x2="521.09" y2="140.67" stroke="#c0392b" stroke-width="1.2"/>
<line x1="656.18" y1="78.99" x2="656.18" y2="65.86" stroke="#c0392b" stroke-width="1.2"/>
<rect x="86.0" y="50.0" width="9" height="9" fill="#1f5fa8"/>
<text x="99.0" y="58.0" font-size="11" fill="#222">estimate</text>
<rect x="86.0" y="65.0" width="9" height="9" fill="#c0392b"/>
<text x="99.0" y="73.0" font-size="11" fill="#222">interval</text>
<text x="386.0" y="440" font-size="12" text-anchor="middle">true ink height (mm)</text>
<text x="16" y="222.0" font-size="12" text-anchor="middle" transform="rotate(-90 16 222.0)">height (mm)</text>
<text x="78" y="456" font-size="10" fill="#555">decisions: ABSTAINED=0, MEETS_SCREENING_THRESHOLD=4, POTENTIAL_UNDERSIZE=4, REQUIRES_OFFICER_REVIEW_BORDERLINE=0</text>
</svg>